<svg width="1300" height="415" viewBox="0 0 1300 415" fill="none" xmlns="http://www.w3.org/2000/svg">
<path d="M1133.29 363.544V223.532L1139.82 224.1V363.544C1139.82 373.389 1141.52 380.489 1144.93 384.844C1148.34 389.009 1154.02 391.092 1161.97 391.092C1162.54 391.092 1162.82 391.66 1162.82 392.796C1162.82 393.932 1162.54 394.5 1161.97 394.5C1158.19 394.5 1154.3 394.405 1150.33 394.216C1146.35 394.027 1141.9 393.932 1136.98 393.932C1132.25 393.932 1127.7 394.027 1123.35 394.216C1118.99 394.405 1114.83 394.5 1110.85 394.5C1110.47 394.5 1110.28 393.932 1110.28 392.796C1110.28 391.66 1110.47 391.092 1110.85 391.092C1119.18 391.092 1124.96 389.009 1128.18 384.844C1131.58 380.489 1133.29 373.389 1133.29 363.544ZM1276.42 397.908C1276.42 398.287 1275.95 398.476 1275 398.476C1274.06 398.665 1273.39 398.665 1273.02 398.476L1142.38 240.288C1135.94 232.525 1130.16 227.319 1125.05 224.668C1120.13 221.828 1115.4 220.408 1110.85 220.408C1110.28 220.408 1110 219.84 1110 218.704C1110 217.568 1110.28 217 1110.85 217C1114.26 217 1117.67 217.095 1121.08 217.284C1124.67 217.473 1127.89 217.568 1130.73 217.568C1134.14 217.568 1137.36 217.473 1140.39 217.284C1143.42 217.095 1145.69 217 1147.2 217C1149.67 217 1151.37 218.136 1152.32 220.408C1153.26 222.491 1156.01 226.277 1160.55 231.768L1274.15 371.212L1276.42 397.908ZM1276.42 248.24V397.908L1269.89 389.104V248.24C1269.89 238.395 1268.19 231.295 1264.78 226.94C1261.56 222.585 1256.07 220.408 1248.31 220.408C1247.93 220.408 1247.74 219.84 1247.74 218.704C1247.74 217.568 1247.93 217 1248.31 217C1252.09 217 1255.98 217.189 1259.95 217.568C1264.12 217.757 1268.57 217.852 1273.3 217.852C1277.84 217.852 1282.29 217.757 1286.65 217.568C1291.19 217.189 1295.36 217 1299.14 217C1299.71 217 1300 217.568 1300 218.704C1300 219.84 1299.71 220.408 1299.14 220.408C1291 220.408 1285.13 222.585 1281.54 226.94C1278.13 231.295 1276.42 238.395 1276.42 248.24Z" fill="white"/>
<path d="M980.028 400.032C966.396 400.032 953.995 397.665 942.824 392.932C931.843 388.009 922.376 381.288 914.424 372.768C906.661 364.248 900.603 354.497 896.248 343.516C892.083 332.345 890 320.512 890 308.016C890 292.68 892.935 279.237 898.804 267.688C904.863 256.139 912.815 246.577 922.66 239.004C932.505 231.241 943.297 225.467 955.036 221.68C966.775 217.893 978.419 216 989.968 216C1003.98 216 1016.47 218.556 1027.46 223.668C1038.63 228.591 1048.09 235.312 1055.86 243.832C1063.62 252.352 1069.49 262.008 1073.46 272.8C1077.63 283.592 1079.71 294.668 1079.71 306.028C1079.71 319.281 1077.06 331.588 1071.76 342.948C1066.46 354.308 1059.17 364.248 1049.89 372.768C1040.8 381.288 1030.2 388.009 1018.08 392.932C1006.16 397.665 993.471 400.032 980.028 400.032ZM989.968 394.068C1002.84 394.068 1014.39 391.039 1024.62 384.98C1034.84 378.732 1042.98 369.644 1049.04 357.716C1055.1 345.788 1058.13 331.209 1058.13 313.98C1058.13 296.183 1054.81 280.468 1048.19 266.836C1041.75 253.015 1032.47 242.223 1020.36 234.46C1008.43 226.508 994.323 222.532 978.04 222.532C957.024 222.532 940.647 229.348 928.908 242.98C917.359 256.423 911.584 274.788 911.584 298.076C911.584 311.519 913.383 324.109 916.98 335.848C920.767 347.397 926.163 357.621 933.168 366.52C940.173 375.229 948.504 382.045 958.16 386.968C967.816 391.701 978.419 394.068 989.968 394.068Z" fill="white"/>
<path d="M555.872 370.496C555.872 375.987 556.44 380.152 557.576 382.992C558.712 385.832 560.984 387.725 564.392 388.672C567.989 389.619 573.196 390.092 580.012 390.092C580.58 390.092 580.864 390.66 580.864 391.796C580.864 392.932 580.58 393.5 580.012 393.5C575.468 393.5 570.356 393.405 564.676 393.216C559.185 393.027 553.032 392.932 546.216 392.932C539.968 392.932 533.909 393.027 528.04 393.216C522.36 393.405 517.248 393.5 512.704 393.5C512.136 393.5 511.852 392.932 511.852 391.796C511.852 390.66 512.136 390.092 512.704 390.092C519.52 390.092 524.727 389.619 528.324 388.672C531.921 387.725 534.288 385.832 535.424 382.992C536.56 380.152 537.128 375.987 537.128 370.496V239.004C537.128 233.513 536.56 229.443 535.424 226.792C534.288 223.952 531.921 222.059 528.324 221.112C524.727 219.976 519.52 219.408 512.704 219.408C512.136 219.408 511.852 218.84 511.852 217.704C511.852 216.568 512.136 216 512.704 216C517.248 216 522.36 216.189 528.04 216.568C533.909 216.757 539.968 216.852 546.216 216.852C553.032 216.852 559.28 216.757 564.96 216.568C570.64 216.189 575.657 216 580.012 216C580.58 216 580.864 216.568 580.864 217.704C580.864 218.84 580.58 219.408 580.012 219.408C573.196 219.408 567.989 219.976 564.392 221.112C560.984 222.248 558.712 224.236 557.576 227.076C556.44 229.916 555.872 234.081 555.872 239.572V370.496Z" fill="white"/>
<path d="M404.168 369.212C404.168 374.892 404.925 379.247 406.44 382.276C407.955 385.116 411.173 387.104 416.096 388.24C421.019 389.376 428.308 389.944 437.964 389.944C438.532 389.944 438.816 390.512 438.816 391.648C438.816 392.784 438.532 393.352 437.964 393.352C431.905 393.352 425.279 393.257 418.084 393.068C411.079 392.879 403.411 392.784 395.08 392.784C388.832 392.784 382.773 392.879 376.904 393.068C371.224 393.257 366.112 393.352 361.568 393.352C361.189 393.352 361 392.784 361 391.648C361 390.512 361.189 389.944 361.568 389.944C368.573 389.944 373.78 389.471 377.188 388.524C380.596 387.577 382.868 385.684 384.004 382.844C385.14 380.004 385.708 375.839 385.708 370.348V238.856C385.708 233.365 385.14 229.295 384.004 226.644C382.868 223.804 380.596 221.911 377.188 220.964C373.78 219.828 368.573 219.26 361.568 219.26C361.189 219.26 361 218.692 361 217.556C361 216.42 361.189 215.852 361.568 215.852C366.112 215.852 371.224 216.041 376.904 216.42C382.584 216.609 388.548 216.704 394.796 216.704C399.719 216.704 405.683 216.42 412.688 215.852C419.883 215.284 427.077 215 434.272 215C445.064 215 454.72 216.609 463.24 219.828C471.949 223.047 478.86 228.064 483.972 234.88C489.084 241.696 491.735 250.595 491.924 261.576C491.924 271.611 490.031 280.225 486.244 287.42C482.647 294.615 477.724 300.579 471.476 305.312C465.417 309.856 458.696 313.264 451.312 315.536C443.928 317.808 436.544 318.944 429.16 318.944C426.888 318.944 424.521 318.849 422.06 318.66C419.788 318.471 417.611 318.092 415.528 317.524C414.771 317.335 414.487 316.672 414.676 315.536C415.055 314.211 415.528 313.643 416.096 313.832C417.8 314.211 419.504 314.495 421.208 314.684C423.101 314.873 424.805 314.968 426.32 314.968C434.083 314.968 441.372 313.264 448.188 309.856C455.004 306.448 460.495 301.241 464.66 294.236C468.825 287.041 470.908 278.143 470.908 267.54C470.908 257.127 469.015 248.417 465.228 241.412C461.441 234.217 456.235 228.727 449.608 224.94C442.981 221.153 435.597 219.26 427.456 219.26C421.208 219.26 416.38 219.639 412.972 220.396C409.753 220.964 407.481 222.668 406.156 225.508C404.831 228.348 404.168 232.987 404.168 239.424V369.212Z" fill="white"/>
<path d="M186.588 314.808L189.428 309.128H264.688L266.676 314.808H186.588ZM330.008 389.5C330.765 389.5 331.144 390.068 331.144 391.204C331.144 392.34 330.765 392.908 330.008 392.908C324.517 392.908 318.932 392.719 313.252 392.34C307.572 391.961 302.081 391.772 296.78 391.772C290.911 391.772 285.799 391.961 281.444 392.34C277.089 392.719 272.261 392.908 266.96 392.908C266.203 392.908 265.824 392.34 265.824 391.204C265.824 390.068 266.203 389.5 266.96 389.5C276.995 389.5 283.243 388.08 285.704 385.24C288.165 382.211 287.503 376.625 283.716 368.484L220.668 235.288L227.768 226.484L172.672 356.84C167.939 368.389 167.655 376.72 171.82 381.832C175.985 386.944 184.221 389.5 196.528 389.5C197.475 389.5 197.948 390.068 197.948 391.204C197.948 392.34 197.475 392.908 196.528 392.908C190.848 392.908 185.641 392.719 180.908 392.34C176.175 391.961 170.211 391.772 163.016 391.772C156.2 391.772 150.709 391.961 146.544 392.34C142.568 392.719 137.645 392.908 131.776 392.908C131.019 392.908 130.64 392.34 130.64 391.204C130.64 390.068 131.019 389.5 131.776 389.5C136.888 389.5 141.337 388.553 145.124 386.66C148.911 384.577 152.413 381.075 155.632 376.152C159.04 371.04 162.732 363.751 166.708 354.284L226.632 212.852C227.011 212.284 227.673 212 228.62 212C229.567 212 230.135 212.284 230.324 212.852L297.348 354C301.703 363.277 305.584 370.567 308.992 375.868C312.4 380.98 315.713 384.577 318.932 386.66C322.34 388.553 326.032 389.5 330.008 389.5Z" fill="white"/>
<path d="M43.168 368.86C43.168 374.54 43.9253 378.895 45.44 381.924C46.9547 384.764 50.1733 386.752 55.096 387.888C60.0187 389.024 67.308 389.592 76.964 389.592C77.532 389.592 77.816 390.16 77.816 391.296C77.816 392.432 77.532 393 76.964 393C70.9053 393 64.2787 392.906 57.084 392.716C50.0787 392.527 42.4107 392.432 34.08 392.432C27.832 392.432 21.7733 392.527 15.904 392.716C10.224 392.906 5.112 393 0.568 393C0.189333 393 0 392.432 0 391.296C0 390.16 0.189333 389.592 0.568 389.592C7.57333 389.592 12.78 389.119 16.188 388.172C19.596 387.226 21.868 385.332 23.004 382.492C24.14 379.652 24.708 375.487 24.708 369.996V238.504C24.708 233.014 24.14 228.943 23.004 226.292C21.868 223.452 19.596 221.559 16.188 220.612C12.78 219.476 7.57333 218.908 0.568 218.908C0.189333 218.908 0 218.34 0 217.204C0 216.068 0.189333 215.5 0.568 215.5C5.112 215.5 10.224 215.69 15.904 216.068C21.584 216.258 27.548 216.352 33.796 216.352C38.7187 216.352 44.6827 216.068 51.688 215.5C58.8827 214.932 66.0773 214.648 73.272 214.648C84.064 214.648 93.72 216.258 102.24 219.476C110.949 222.695 117.86 227.712 122.972 234.528C128.084 241.344 130.735 250.243 130.924 261.224C130.924 271.259 129.031 279.874 125.244 287.068C121.647 294.263 116.724 300.227 110.476 304.96C104.417 309.504 97.696 312.912 90.312 315.184C82.928 317.456 75.544 318.592 68.16 318.592C65.888 318.592 63.5213 318.498 61.06 318.308C58.788 318.119 56.6107 317.74 54.528 317.172C53.7707 316.983 53.4867 316.32 53.676 315.184C54.0547 313.859 54.528 313.291 55.096 313.48C56.8 313.859 58.504 314.143 60.208 314.332C62.1013 314.522 63.8053 314.616 65.32 314.616C73.0827 314.616 80.372 312.912 87.188 309.504C94.004 306.096 99.4947 300.89 103.66 293.884C107.825 286.69 109.908 277.791 109.908 267.188C109.908 256.775 108.015 248.066 104.228 241.06C100.441 233.866 95.2347 228.375 88.608 224.588C81.9813 220.802 74.5973 218.908 66.456 218.908C60.208 218.908 55.38 219.287 51.972 220.044C48.7533 220.612 46.4813 222.316 45.156 225.156C43.8307 227.996 43.168 232.635 43.168 239.072V368.86Z" fill="white"/>
<path opacity="0.95" d="M394.512 94V86.8H403.92V34H394.512V26.8H428.208C432.112 26.8 435.568 27.504 438.576 28.912C441.648 30.32 444.016 32.304 445.68 34.864C447.408 37.36 448.272 40.304 448.272 43.696V44.464C448.272 47.6 447.664 50.192 446.448 52.24C445.232 54.224 443.792 55.792 442.128 56.944C440.464 58.032 438.832 58.832 437.232 59.344V60.688C438.832 61.072 440.496 61.84 442.224 62.992C443.952 64.08 445.392 65.648 446.544 67.696C447.76 69.744 448.368 72.336 448.368 75.472V76.432C448.368 80.08 447.472 83.248 445.68 85.936C443.952 88.56 441.552 90.576 438.48 91.984C435.472 93.328 432.016 94 428.112 94H394.512ZM411.984 86.704H427.248C431.472 86.704 434.704 85.712 436.944 83.728C439.184 81.744 440.304 79.056 440.304 75.664V74.8C440.304 71.408 439.184 68.72 436.944 66.736C434.704 64.752 431.472 63.76 427.248 63.76H411.984V86.704ZM411.984 56.464H427.536C431.376 56.464 434.448 55.504 436.752 53.584C439.056 51.6 440.208 49.008 440.208 45.808V44.848C440.208 41.584 439.056 38.992 436.752 37.072C434.512 35.088 431.44 34.096 427.536 34.096H411.984V56.464ZM499.549 94V26.8H507.613V86.704H541.597V94H499.549ZM585.075 94L605.811 26.8H620.019L640.755 94H632.403L627.219 77.008H598.611L593.427 94H585.075ZM600.627 69.712H625.107L613.587 31.696H612.243L600.627 69.712ZM712.574 95.344C704.574 95.344 698.206 93.04 693.47 88.432C688.734 83.76 686.366 76.976 686.366 68.08V52.72C686.366 43.824 688.734 37.072 693.47 32.464C698.206 27.792 704.574 25.456 712.574 25.456C720.51 25.456 726.59 27.664 730.814 32.08C735.102 36.496 737.246 42.544 737.246 50.224V50.704H729.278V49.936C729.278 44.88 727.902 40.752 725.15 37.552C722.462 34.288 718.27 32.656 712.574 32.656C706.878 32.656 702.43 34.416 699.23 37.936C696.03 41.392 694.43 46.256 694.43 52.528V68.272C694.43 74.544 696.03 79.44 699.23 82.96C702.43 86.416 706.878 88.144 712.574 88.144C718.27 88.144 722.462 86.544 725.15 83.344C727.902 80.08 729.278 75.92 729.278 70.864V69.328H737.246V70.576C737.246 78.256 735.102 84.304 730.814 88.72C726.59 93.136 720.51 95.344 712.574 95.344ZM788.28 94V26.8H796.344V56.08H797.688L826.104 26.8H836.856L804.12 60.016L838.008 94H826.968L797.688 64.144H796.344V94H788.28Z" fill="white"/>
<g opacity="0.95">
<path d="M685.757 216H625.55V218.361C628.869 218.991 635.871 220.628 637.319 222.139C638.768 223.65 642.148 232.528 643.657 236.778V343.028C643.657 346.05 638.225 349.954 635.509 351.528H617.6C618.958 351.528 624.644 354.361 649.542 364.278C669.46 372.211 686.412 383 708.912 408L714 414L665.386 354.361V239.139C665.386 238.352 665.658 235.078 666.744 228.278C667.83 221.478 679.872 218.833 685.757 218.361V216Z" fill="white"/>
<path d="M770.862 228.278C769.775 221.478 758.639 218.833 753.207 218.361V216H814.772V218.361H806.171C801.825 218.361 796.514 228.435 794.401 233.472L798.023 346.05V354.361C790.931 359.398 779.282 368.528 773.125 372.306C766.969 376.083 742.795 400.287 735.402 408C738.57 405.481 751.034 394.028 760.45 392.139C772.22 389.778 784.895 391.667 798.023 394.5C811.151 397.333 840.603 391.94 848 385.805C855 380 851 383.5 858 376C861.378 372.381 858.834 376.123 856.705 379.256L856.641 379.349C854.5 382.5 857.264 378.599 851.951 385.805C848.823 390.047 848.432 391.44 840.614 398C830.704 406.315 807.982 410.083 803.908 410.556C799.834 411.028 789.875 407.722 779.915 404.889C769.956 402.056 760.45 403 751.396 402.056C744.153 401.3 734.639 408.176 728 414C738.261 401.407 754.656 379.106 760.45 372.306C766.244 365.506 773.125 356.76 773.125 352.17V270.778C772.823 259.444 771.948 235.078 770.862 228.278Z" fill="white"/>
<path d="M617.6 351.528C618.958 351.528 624.644 354.361 649.542 364.278C669.46 372.211 686.412 383 708.912 408L714 414L665.386 354.361V239.139C665.386 238.352 665.658 235.078 666.744 228.278C667.83 221.478 679.872 218.833 685.757 218.361V216H625.55V218.361C628.869 218.991 635.871 220.628 637.319 222.139C638.768 223.65 642.148 232.528 643.657 236.778C643.657 270.935 643.657 340.006 643.657 343.028C643.657 346.05 638.225 349.954 635.509 351.528H617.6ZM617.6 351.528C616.513 351.528 617.147 352.472 617.6 351.528ZM753.207 218.361C758.639 218.833 769.775 221.478 770.862 228.278C771.948 235.078 772.823 259.444 773.125 270.778V352.17C773.125 356.76 766.244 365.506 760.45 372.306C754.656 379.106 738.261 401.407 728 414C734.639 408.176 744.153 401.3 751.396 402.056C760.45 403 769.956 402.056 779.915 404.889C789.875 407.722 799.834 411.028 803.908 410.556C807.982 410.083 830.704 406.315 840.614 398C848.432 391.44 848.823 390.047 851.951 385.805C857.264 378.599 854.5 382.5 856.641 379.349C858.783 376.199 861.412 372.345 858 376C851 383.5 855 380 848 385.805C840.603 391.94 811.151 397.333 798.023 394.5C784.895 391.667 772.22 389.778 760.45 392.139C751.034 394.028 738.57 405.481 735.402 408C742.795 400.287 766.969 376.083 773.125 372.306C779.282 368.528 790.931 359.398 798.023 354.361V346.05L794.401 233.472C796.514 228.435 801.825 218.361 806.171 218.361C810.517 218.361 813.716 218.361 814.772 218.361V216H753.207V218.361Z" stroke="white"/>
</g>
</svg>
