<svg width="1878" height="203" viewBox="0 0 1878 203" fill="none" xmlns="http://www.w3.org/2000/svg">
<path d="M1711.29 151.544V11.532L1717.82 12.1V151.544C1717.82 161.389 1719.52 168.489 1722.93 172.844C1726.34 177.009 1732.02 179.092 1739.97 179.092C1740.54 179.092 1740.82 179.66 1740.82 180.796C1740.82 181.932 1740.54 182.5 1739.97 182.5C1736.19 182.5 1732.3 182.405 1728.33 182.216C1724.35 182.027 1719.9 181.932 1714.98 181.932C1710.25 181.932 1705.7 182.027 1701.35 182.216C1696.99 182.405 1692.83 182.5 1688.85 182.5C1688.47 182.5 1688.28 181.932 1688.28 180.796C1688.28 179.66 1688.47 179.092 1688.85 179.092C1697.18 179.092 1702.96 177.009 1706.18 172.844C1709.58 168.489 1711.29 161.389 1711.29 151.544ZM1854.42 185.908C1854.42 186.287 1853.95 186.476 1853 186.476C1852.06 186.665 1851.39 186.665 1851.02 186.476L1720.38 28.288C1713.94 20.5253 1708.16 15.3187 1703.05 12.668C1698.13 9.82799 1693.4 8.40799 1688.85 8.40799C1688.28 8.40799 1688 7.83999 1688 6.70399C1688 5.568 1688.28 5 1688.85 5C1692.26 5 1695.67 5.09467 1699.08 5.284C1702.67 5.47333 1705.89 5.56799 1708.73 5.56799C1712.14 5.56799 1715.36 5.47333 1718.39 5.284C1721.42 5.09467 1723.69 5 1725.2 5C1727.67 5 1729.37 6.136 1730.32 8.40799C1731.26 10.4907 1734.01 14.2773 1738.55 19.768L1852.15 159.212L1854.42 185.908ZM1854.42 36.24V185.908L1847.89 177.104V36.24C1847.89 26.3947 1846.19 19.2947 1842.78 14.94C1839.56 10.5853 1834.07 8.40799 1826.31 8.40799C1825.93 8.40799 1825.74 7.83999 1825.74 6.70399C1825.74 5.568 1825.93 5 1826.31 5C1830.09 5 1833.98 5.18933 1837.95 5.56799C1842.12 5.75732 1846.57 5.85199 1851.3 5.85199C1855.84 5.85199 1860.29 5.75732 1864.65 5.56799C1869.19 5.18933 1873.36 5 1877.14 5C1877.71 5 1878 5.568 1878 6.70399C1878 7.83999 1877.71 8.40799 1877.14 8.40799C1869 8.40799 1863.13 10.5853 1859.54 14.94C1856.13 19.2947 1854.42 26.3947 1854.42 36.24Z" fill="white"/>
<path d="M1558.03 188.032C1544.4 188.032 1531.99 185.665 1520.82 180.932C1509.84 176.009 1500.38 169.288 1492.42 160.768C1484.66 152.248 1478.6 142.497 1474.25 131.516C1470.08 120.345 1468 108.512 1468 96.016C1468 80.68 1470.93 67.2373 1476.8 55.688C1482.86 44.1387 1490.81 34.5773 1500.66 27.004C1510.51 19.2413 1521.3 13.4667 1533.04 9.67999C1544.77 5.89333 1556.42 4 1567.97 4C1581.98 4 1594.47 6.556 1605.46 11.668C1616.63 16.5907 1626.09 23.312 1633.86 31.832C1641.62 40.352 1647.49 50.008 1651.46 60.8C1655.63 71.592 1657.71 82.668 1657.71 94.028C1657.71 107.281 1655.06 119.588 1649.76 130.948C1644.46 142.308 1637.17 152.248 1627.89 160.768C1618.8 169.288 1608.2 176.009 1596.08 180.932C1584.16 185.665 1571.47 188.032 1558.03 188.032ZM1567.97 182.068C1580.84 182.068 1592.39 179.039 1602.62 172.98C1612.84 166.732 1620.98 157.644 1627.04 145.716C1633.1 133.788 1636.13 119.209 1636.13 101.98C1636.13 84.1827 1632.81 68.468 1626.19 54.836C1619.75 41.0147 1610.47 30.2227 1598.36 22.46C1586.43 14.508 1572.32 10.532 1556.04 10.532C1535.02 10.532 1518.65 17.348 1506.91 30.98C1495.36 44.4227 1489.58 62.788 1489.58 86.076C1489.58 99.5187 1491.38 112.109 1494.98 123.848C1498.77 135.397 1504.16 145.621 1511.17 154.52C1518.17 163.229 1526.5 170.045 1536.16 174.968C1545.82 179.701 1556.42 182.068 1567.97 182.068Z" fill="white"/>
<path d="M1133.87 158.496C1133.87 163.987 1134.44 168.152 1135.58 170.992C1136.71 173.832 1138.98 175.725 1142.39 176.672C1145.99 177.619 1151.2 178.092 1158.01 178.092C1158.58 178.092 1158.86 178.66 1158.86 179.796C1158.86 180.932 1158.58 181.5 1158.01 181.5C1153.47 181.5 1148.36 181.405 1142.68 181.216C1137.19 181.027 1131.03 180.932 1124.22 180.932C1117.97 180.932 1111.91 181.027 1106.04 181.216C1100.36 181.405 1095.25 181.5 1090.7 181.5C1090.14 181.5 1089.85 180.932 1089.85 179.796C1089.85 178.66 1090.14 178.092 1090.7 178.092C1097.52 178.092 1102.73 177.619 1106.32 176.672C1109.92 175.725 1112.29 173.832 1113.42 170.992C1114.56 168.152 1115.13 163.987 1115.13 158.496V27.004C1115.13 21.5133 1114.56 17.4427 1113.42 14.792C1112.29 11.952 1109.92 10.0587 1106.32 9.11198C1102.73 7.97599 1097.52 7.40799 1090.7 7.40799C1090.14 7.40799 1089.85 6.83999 1089.85 5.70399C1089.85 4.568 1090.14 4 1090.7 4C1095.25 4 1100.36 4.18933 1106.04 4.56799C1111.91 4.75732 1117.97 4.85199 1124.22 4.85199C1131.03 4.85199 1137.28 4.75732 1142.96 4.56799C1148.64 4.18933 1153.66 4 1158.01 4C1158.58 4 1158.86 4.568 1158.86 5.70399C1158.86 6.83999 1158.58 7.40799 1158.01 7.40799C1151.2 7.40799 1145.99 7.97599 1142.39 9.11198C1138.98 10.248 1136.71 12.236 1135.58 15.076C1134.44 17.916 1133.87 22.0813 1133.87 27.572V158.496Z" fill="white"/>
<path d="M982.168 157.212C982.168 162.892 982.925 167.247 984.44 170.276C985.955 173.116 989.173 175.104 994.096 176.24C999.019 177.376 1006.31 177.944 1015.96 177.944C1016.53 177.944 1016.82 178.512 1016.82 179.648C1016.82 180.784 1016.53 181.352 1015.96 181.352C1009.91 181.352 1003.28 181.257 996.084 181.068C989.079 180.879 981.411 180.784 973.08 180.784C966.832 180.784 960.773 180.879 954.904 181.068C949.224 181.257 944.112 181.352 939.568 181.352C939.189 181.352 939 180.784 939 179.648C939 178.512 939.189 177.944 939.568 177.944C946.573 177.944 951.78 177.471 955.188 176.524C958.596 175.577 960.868 173.684 962.004 170.844C963.14 168.004 963.708 163.839 963.708 158.348V26.856C963.708 21.3653 963.14 17.2947 962.004 14.644C960.868 11.804 958.596 9.91066 955.188 8.96399C951.78 7.82799 946.573 7.25999 939.568 7.25999C939.189 7.25999 939 6.692 939 5.556C939 4.42 939.189 3.85201 939.568 3.85201C944.112 3.85201 949.224 4.04134 954.904 4.42C960.584 4.60933 966.548 4.70399 972.796 4.70399C977.719 4.70399 983.683 4.42 990.688 3.85201C997.883 3.284 1005.08 3 1012.27 3C1023.06 3 1032.72 4.60933 1041.24 7.828C1049.95 11.0467 1056.86 16.064 1061.97 22.88C1067.08 29.696 1069.73 38.5947 1069.92 49.576C1069.92 59.6107 1068.03 68.2253 1064.24 75.42C1060.65 82.6147 1055.72 88.5787 1049.48 93.312C1043.42 97.856 1036.7 101.264 1029.31 103.536C1021.93 105.808 1014.54 106.944 1007.16 106.944C1004.89 106.944 1002.52 106.849 1000.06 106.66C997.788 106.471 995.611 106.092 993.528 105.524C992.771 105.335 992.487 104.672 992.676 103.536C993.055 102.211 993.528 101.643 994.096 101.832C995.8 102.211 997.504 102.495 999.208 102.684C1001.1 102.873 1002.81 102.968 1004.32 102.968C1012.08 102.968 1019.37 101.264 1026.19 97.856C1033 94.448 1038.49 89.2413 1042.66 82.236C1046.83 75.0413 1048.91 66.1427 1048.91 55.54C1048.91 45.1267 1047.01 36.4173 1043.23 29.412C1039.44 22.2173 1034.23 16.7267 1027.61 12.94C1020.98 9.15332 1013.6 7.25999 1005.46 7.25999C999.208 7.25999 994.38 7.63866 990.972 8.396C987.753 8.964 985.481 10.668 984.156 13.508C982.831 16.348 982.168 20.9867 982.168 27.424V157.212Z" fill="white"/>
<path d="M764.588 102.808L767.428 97.128H842.688L844.676 102.808H764.588ZM908.008 177.5C908.765 177.5 909.144 178.068 909.144 179.204C909.144 180.34 908.765 180.908 908.008 180.908C902.517 180.908 896.932 180.719 891.252 180.34C885.572 179.961 880.081 179.772 874.78 179.772C868.911 179.772 863.799 179.961 859.444 180.34C855.089 180.719 850.261 180.908 844.96 180.908C844.203 180.908 843.824 180.34 843.824 179.204C843.824 178.068 844.203 177.5 844.96 177.5C854.995 177.5 861.243 176.08 863.704 173.24C866.165 170.211 865.503 164.625 861.716 156.484L798.668 23.288L805.768 14.484L750.672 144.84C745.939 156.389 745.655 164.72 749.82 169.832C753.985 174.944 762.221 177.5 774.528 177.5C775.475 177.5 775.948 178.068 775.948 179.204C775.948 180.34 775.475 180.908 774.528 180.908C768.848 180.908 763.641 180.719 758.908 180.34C754.175 179.961 748.211 179.772 741.016 179.772C734.2 179.772 728.709 179.961 724.544 180.34C720.568 180.719 715.645 180.908 709.776 180.908C709.019 180.908 708.64 180.34 708.64 179.204C708.64 178.068 709.019 177.5 709.776 177.5C714.888 177.5 719.337 176.553 723.124 174.66C726.911 172.577 730.413 169.075 733.632 164.152C737.04 159.04 740.732 151.751 744.708 142.284L804.632 0.852005C805.011 0.284001 805.673 0 806.62 0C807.567 0 808.135 0.284001 808.324 0.852005L875.348 142C879.703 151.277 883.584 158.567 886.992 163.868C890.4 168.98 893.713 172.577 896.932 174.66C900.34 176.553 904.032 177.5 908.008 177.5Z" fill="white"/>
<path d="M621.168 156.86C621.168 162.54 621.925 166.895 623.44 169.924C624.955 172.764 628.173 174.752 633.096 175.888C638.019 177.024 645.308 177.592 654.964 177.592C655.532 177.592 655.816 178.16 655.816 179.296C655.816 180.432 655.532 181 654.964 181C648.905 181 642.279 180.906 635.084 180.716C628.079 180.527 620.411 180.432 612.08 180.432C605.832 180.432 599.773 180.527 593.904 180.716C588.224 180.906 583.112 181 578.568 181C578.189 181 578 180.432 578 179.296C578 178.16 578.189 177.592 578.568 177.592C585.573 177.592 590.78 177.119 594.188 176.172C597.596 175.226 599.868 173.332 601.004 170.492C602.14 167.652 602.708 163.487 602.708 157.996V26.5044C602.708 21.0138 602.14 16.9431 601.004 14.2924C599.868 11.4524 597.596 9.55909 594.188 8.61243C590.78 7.47643 585.573 6.90843 578.568 6.90843C578.189 6.90843 578 6.34043 578 5.20444C578 4.06844 578.189 3.50044 578.568 3.50044C583.112 3.50044 588.224 3.68977 593.904 4.06844C599.584 4.25777 605.548 4.35243 611.796 4.35243C616.719 4.35243 622.683 4.06844 629.688 3.50044C636.883 2.93244 644.077 2.64844 651.272 2.64844C662.064 2.64844 671.72 4.25777 680.24 7.47644C688.949 10.6951 695.86 15.7124 700.972 22.5284C706.084 29.3444 708.735 38.2431 708.924 49.2244C708.924 59.2591 707.031 67.8738 703.244 75.0684C699.647 82.2631 694.724 88.2271 688.476 92.9604C682.417 97.5044 675.696 100.912 668.312 103.184C660.928 105.456 653.544 106.592 646.16 106.592C643.888 106.592 641.521 106.498 639.06 106.308C636.788 106.119 634.611 105.74 632.528 105.172C631.771 104.983 631.487 104.32 631.676 103.184C632.055 101.859 632.528 101.291 633.096 101.48C634.8 101.859 636.504 102.143 638.208 102.332C640.101 102.522 641.805 102.616 643.32 102.616C651.083 102.616 658.372 100.912 665.188 97.5044C672.004 94.0964 677.495 88.8898 681.66 81.8844C685.825 74.6898 687.908 65.7911 687.908 55.1884C687.908 44.7751 686.015 36.0658 682.228 29.0604C678.441 21.8658 673.235 16.3751 666.608 12.5884C659.981 8.80176 652.597 6.90843 644.456 6.90843C638.208 6.90843 633.38 7.2871 629.972 8.04443C626.753 8.61244 624.481 10.3164 623.156 13.1564C621.831 15.9964 621.168 20.6351 621.168 27.0724V156.86Z" fill="white"/>
<path opacity="0.95" d="M4.512 113V105.8H13.92V53H4.512V45.8H38.208C42.112 45.8 45.568 46.504 48.576 47.912C51.648 49.32 54.016 51.304 55.68 53.864C57.408 56.36 58.272 59.304 58.272 62.696V63.464C58.272 66.6 57.664 69.192 56.448 71.24C55.232 73.224 53.792 74.792 52.128 75.944C50.464 77.032 48.832 77.832 47.232 78.344V79.688C48.832 80.072 50.496 80.84 52.224 81.992C53.952 83.08 55.392 84.648 56.544 86.696C57.76 88.744 58.368 91.336 58.368 94.472V95.432C58.368 99.08 57.472 102.248 55.68 104.936C53.952 107.56 51.552 109.576 48.48 110.984C45.472 112.328 42.016 113 38.112 113H4.512ZM21.984 105.704H37.248C41.472 105.704 44.704 104.712 46.944 102.728C49.184 100.744 50.304 98.056 50.304 94.664V93.8C50.304 90.408 49.184 87.72 46.944 85.736C44.704 83.752 41.472 82.76 37.248 82.76H21.984V105.704ZM21.984 75.464H37.536C41.376 75.464 44.448 74.504 46.752 72.584C49.056 70.6 50.208 68.008 50.208 64.808V63.848C50.208 60.584 49.056 57.992 46.752 56.072C44.512 54.088 41.44 53.096 37.536 53.096H21.984V75.464ZM109.549 113V45.8H117.613V105.704H151.597V113H109.549ZM195.075 113L215.811 45.8H230.019L250.755 113H242.403L237.219 96.008H208.611L203.427 113H195.075ZM210.627 88.712H235.107L223.587 50.696H222.243L210.627 88.712ZM322.574 114.344C314.574 114.344 308.206 112.04 303.47 107.432C298.734 102.76 296.366 95.976 296.366 87.08V71.72C296.366 62.824 298.734 56.072 303.47 51.464C308.206 46.792 314.574 44.456 322.574 44.456C330.51 44.456 336.59 46.664 340.814 51.08C345.102 55.496 347.246 61.544 347.246 69.224V69.704H339.278V68.936C339.278 63.88 337.902 59.752 335.15 56.552C332.462 53.288 328.27 51.656 322.574 51.656C316.878 51.656 312.43 53.416 309.23 56.936C306.03 60.392 304.43 65.256 304.43 71.528V87.272C304.43 93.544 306.03 98.44 309.23 101.96C312.43 105.416 316.878 107.144 322.574 107.144C328.27 107.144 332.462 105.544 335.15 102.344C337.902 99.08 339.278 94.92 339.278 89.864V88.328H347.246V89.576C347.246 97.256 345.102 103.304 340.814 107.72C336.59 112.136 330.51 114.344 322.574 114.344ZM398.28 113V45.8H406.344V75.08H407.688L436.104 45.8H446.856L414.12 79.016L448.008 113H436.968L407.688 83.144H406.344V113H398.28Z" fill="white"/>
<g opacity="0.95">
<path d="M1263.76 4H1203.55V6.36111C1206.87 6.99074 1213.87 8.62778 1215.32 10.1389C1216.77 11.65 1220.15 20.5278 1221.66 24.7778V131.028C1221.66 134.05 1216.22 137.954 1213.51 139.528H1195.6C1196.96 139.528 1202.64 142.361 1227.54 152.278C1247.46 160.211 1264.41 171 1286.91 196L1292 202L1243.39 142.361V27.1389C1243.39 26.3519 1243.66 23.0778 1244.74 16.2778C1245.83 9.47778 1257.87 6.83333 1263.76 6.36111V4Z" fill="white"/>
<path d="M1348.86 16.2778C1347.78 9.47778 1336.64 6.83333 1331.21 6.36111V4H1392.77V6.36111H1384.17C1379.83 6.36111 1374.51 16.4352 1372.4 21.4722L1376.02 134.05V142.361C1368.93 147.398 1357.28 156.528 1351.13 160.306C1344.97 164.083 1320.8 188.287 1313.4 196C1316.57 193.481 1329.03 182.028 1338.45 180.139C1350.22 177.778 1362.89 179.667 1376.02 182.5C1389.15 185.333 1418.6 179.94 1426 173.805C1433 168 1429 171.5 1436 164C1439.38 160.381 1436.83 164.123 1434.71 167.256L1434.64 167.349C1432.5 170.5 1435.26 166.599 1429.95 173.805C1426.82 178.047 1426.43 179.44 1418.61 186C1408.7 194.315 1385.98 198.083 1381.91 198.556C1377.83 199.028 1367.87 195.722 1357.92 192.889C1347.96 190.056 1338.45 191 1329.4 190.056C1322.15 189.3 1312.64 196.176 1306 202C1316.26 189.407 1332.66 167.106 1338.45 160.306C1344.24 153.506 1351.13 144.76 1351.13 140.17V58.7778C1350.82 47.4444 1349.95 23.0778 1348.86 16.2778Z" fill="white"/>
<path d="M1195.6 139.528C1196.96 139.528 1202.64 142.361 1227.54 152.278C1247.46 160.211 1264.41 171 1286.91 196L1292 202L1243.39 142.361V27.1389C1243.39 26.3519 1243.66 23.0778 1244.74 16.2778C1245.83 9.47778 1257.87 6.83333 1263.76 6.36111V4H1203.55V6.36111C1206.87 6.99074 1213.87 8.62778 1215.32 10.1389C1216.77 11.65 1220.15 20.5278 1221.66 24.7778C1221.66 58.9352 1221.66 128.006 1221.66 131.028C1221.66 134.05 1216.22 137.954 1213.51 139.528H1195.6ZM1195.6 139.528C1194.51 139.528 1195.15 140.472 1195.6 139.528ZM1331.21 6.36111C1336.64 6.83333 1347.78 9.47778 1348.86 16.2778C1349.95 23.0778 1350.82 47.4444 1351.13 58.7778V140.17C1351.13 144.76 1344.24 153.506 1338.45 160.306C1332.66 167.106 1316.26 189.407 1306 202C1312.64 196.176 1322.15 189.3 1329.4 190.056C1338.45 191 1347.96 190.056 1357.92 192.889C1367.87 195.722 1377.83 199.028 1381.91 198.556C1385.98 198.083 1408.7 194.315 1418.61 186C1426.43 179.44 1426.82 178.047 1429.95 173.805C1435.26 166.599 1432.5 170.5 1434.64 167.349C1436.78 164.199 1439.41 160.345 1436 164C1429 171.5 1433 168 1426 173.805C1418.6 179.94 1389.15 185.333 1376.02 182.5C1362.89 179.667 1350.22 177.778 1338.45 180.139C1329.03 182.028 1316.57 193.481 1313.4 196C1320.8 188.287 1344.97 164.083 1351.13 160.306C1357.28 156.528 1368.93 147.398 1376.02 142.361V134.05L1372.4 21.4722C1374.51 16.4352 1379.83 6.36111 1384.17 6.36111C1388.52 6.36111 1391.72 6.36111 1392.77 6.36111V4H1331.21V6.36111Z" stroke="white"/>
</g>
</svg>
