<svg width="908" height="107" viewBox="0 0 908 107" fill="none" xmlns="http://www.w3.org/2000/svg">
<path opacity="0.97" d="M907.246 73.4082L903.546 104.488H831.026V103.304L843.162 102.12V4.73617L831.026 3.55217V2.36816H903.694L905.766 30.1922L904.286 30.3402L895.998 9.62017C895.11 7.35084 894.123 5.87084 893.038 5.18018C892.051 4.48951 890.374 4.14417 888.006 4.14417H854.558V49.5802H876.462C878.83 49.5802 880.507 49.1855 881.494 48.3962C882.481 47.6068 883.171 46.0775 883.566 43.8082L886.082 31.8202H887.858V69.7082H886.082L883.566 57.7202C883.171 55.4508 882.481 53.9215 881.494 53.1322C880.507 52.3428 878.83 51.9482 876.462 51.9482H854.558V102.712H887.71C890.078 102.712 891.805 102.367 892.89 101.676C893.975 100.887 894.962 99.4068 895.85 97.2362L905.618 73.2602L907.246 73.4082Z" fill="white"/>
<path opacity="0.97" d="M795.763 10.2122C801.781 14.4548 806.468 20.2762 809.823 27.6762C813.177 35.0762 814.855 43.4628 814.855 52.8362C814.855 62.2095 813.177 70.7442 809.823 78.4402C806.468 86.1362 801.781 92.1548 795.763 96.4962C791.915 99.2588 787.475 101.282 782.443 102.564C777.509 103.847 771.441 104.488 764.239 104.488H724.871V103.304L737.007 102.12V4.73617L724.871 3.55217V2.36816H764.239C777.657 2.36816 788.165 4.98283 795.763 10.2122ZM790.435 93.9802C793.592 89.9348 796.059 84.2122 797.835 76.8122C799.709 69.3135 800.647 61.0748 800.647 52.0962C800.647 43.3148 799.759 35.5695 797.983 28.8602C796.305 22.1508 793.789 16.8228 790.435 12.8762C787.672 9.62017 784.268 7.35084 780.223 6.06817C776.177 4.7855 770.405 4.14417 762.907 4.14417H748.403V102.712H762.907C770.8 102.712 776.72 102.071 780.667 100.788C784.613 99.5055 787.869 97.2362 790.435 93.9802Z" fill="white"/>
<path opacity="0.97" d="M674.36 2.36816H710.028V3.55217L697.892 4.73617V102.12L710.028 103.304V104.488H674.36V103.304L686.496 102.12V4.73617L674.36 3.55217V2.36816Z" fill="white"/>
<path opacity="0.97" d="M646.382 11.3962C646.382 9.02817 646.086 7.40017 645.494 6.51217C644.902 5.62417 643.718 5.03217 641.942 4.73617L631.434 3.55217V2.36816H663.846V3.55217L653.19 4.73617C651.414 5.03217 650.23 5.62417 649.638 6.51217C649.046 7.40017 648.75 9.02817 648.75 11.3962V68.2282C648.75 74.4442 648.257 79.6242 647.27 83.7682C646.382 87.9122 644.951 91.4642 642.978 94.4242C640.314 98.2722 636.663 101.331 632.026 103.6C627.389 105.771 622.258 106.856 616.634 106.856C612.095 106.856 607.606 106.116 603.166 104.636C598.726 103.156 595.026 101.134 592.066 98.5682C589.007 95.9042 586.837 92.5002 585.554 88.3562C584.271 84.2122 583.63 78.4895 583.63 71.1882V4.73617L571.494 3.55217V2.36816H607.902V3.55217L595.026 4.73617V76.0722C595.026 83.2748 595.667 88.8002 596.95 92.6482C598.331 96.4962 600.601 99.3575 603.758 101.232C605.435 102.219 607.507 103.008 609.974 103.6C612.441 104.192 615.006 104.488 617.67 104.488C622.603 104.488 627.142 103.502 631.286 101.528C635.43 99.5548 638.735 96.7428 641.202 93.0922C643.077 90.3295 644.409 87.1228 645.198 83.4722C645.987 79.7228 646.382 74.8882 646.382 68.9682V11.3962Z" fill="white"/>
<path opacity="0.97" d="M538.176 93.092V55.796L527.52 54.612V53.428H561.708V54.612L549.572 55.796V94.424C544.836 98.7653 539.064 101.923 532.256 103.896C525.448 105.869 519.478 106.856 514.348 106.856C505.764 106.856 497.87 104.488 490.668 99.752C483.564 95.016 477.94 88.6027 473.796 80.512C469.75 72.3227 467.728 63.2947 467.728 53.428C467.728 43.66 469.75 34.6813 473.796 26.492C477.94 18.3027 483.564 11.84 490.668 7.104C497.772 2.368 505.566 0 514.052 0C518.393 0 522.833 0.739999 527.372 2.22C532.009 3.60133 537.14 5.82133 542.764 8.88L546.316 1.776H548.24L549.72 35.076L547.648 35.668C546.266 28.0707 544.096 21.8053 541.136 16.872C538.176 12.0373 534.377 8.33733 529.74 5.772C525.201 3.108 520.12 1.776 514.496 1.776C504.037 1.776 495.996 6.26533 490.372 15.244C484.748 24.2227 481.936 36.9507 481.936 53.428C481.936 69.9053 484.748 82.6333 490.372 91.612C495.996 100.591 503.988 105.08 514.348 105.08C519.281 105.08 523.869 103.995 528.112 101.824C532.354 99.5547 535.709 96.644 538.176 93.092Z" fill="white"/>
<path opacity="0.97" d="M409.787 73.4082L406.087 104.488H333.567V103.304L345.703 102.12V4.73617L333.567 3.55217V2.36816H406.235L408.307 30.1922L406.827 30.3402L398.539 9.62017C397.651 7.35084 396.664 5.87084 395.579 5.18018C394.592 4.48951 392.915 4.14417 390.547 4.14417H357.099V49.5802H379.003C381.371 49.5802 383.048 49.1855 384.035 48.3962C385.021 47.6068 385.712 46.0775 386.107 43.8082L388.623 31.8202H390.399V69.7082H388.623L386.107 57.7202C385.712 55.4508 385.021 53.9215 384.035 53.1322C383.048 52.3428 381.371 51.9482 379.003 51.9482H357.099V102.712H390.251C392.619 102.712 394.345 102.367 395.431 101.676C396.516 100.887 397.503 99.4068 398.391 97.2362L408.159 73.2602L409.787 73.4082Z" fill="white"/>
<path opacity="0.97" d="M291.863 101.972C296.106 100.097 299.658 97.5813 302.519 94.424C307.354 88.9973 311.004 80.9067 313.471 70.152L315.395 70.448V104.488H313.471L308.439 96.348C303.999 99.604 299.164 102.169 293.935 104.044C288.804 105.919 283.822 106.856 278.987 106.856C270.403 106.856 262.51 104.488 255.307 99.752C248.203 95.016 242.579 88.6027 238.435 80.512C234.39 72.3227 232.367 63.2947 232.367 53.428C232.367 43.66 234.39 34.6813 238.435 26.492C242.579 18.3027 248.203 11.84 255.307 7.104C262.411 2.368 270.206 0 278.691 0C283.131 0 287.67 0.739999 292.307 2.22C297.043 3.60133 302.272 5.82133 307.995 8.88L311.547 1.776H313.471L314.951 35.076L312.879 35.668C311.498 28.0707 309.327 21.8053 306.367 16.872C303.407 12.0373 299.559 8.33733 294.823 5.772C290.087 3.108 284.858 1.776 279.135 1.776C268.676 1.776 260.635 6.26533 255.011 15.244C249.387 24.2227 246.575 36.9507 246.575 53.428C246.575 69.8067 249.387 82.4853 255.011 91.464C260.635 100.344 268.627 104.784 278.987 104.784C283.427 104.784 287.719 103.847 291.863 101.972Z" fill="white"/>
<path opacity="0.97" d="M180.948 2.36816H216.616V3.55217L204.48 4.73617V102.12L216.616 103.304V104.488H180.948V103.304L193.084 102.12V4.73617L180.948 3.55217V2.36816Z" fill="white"/>
<path opacity="0.97" d="M176.913 103.304V104.488H161.669C159.301 104.488 157.525 104.143 156.341 103.452C155.157 102.762 153.924 101.43 152.641 99.4562L129.997 62.9002C128.616 60.6308 127.432 59.2495 126.445 58.7562C125.557 58.1642 123.929 57.8682 121.561 57.8682H110.609V102.12L123.485 103.304V104.488H87.0771V103.304L99.2132 102.12V4.73617L87.0771 3.55217V2.36816H124.521C136.164 2.36816 145.044 4.73617 151.161 9.47217C157.278 14.1095 160.337 20.8682 160.337 29.7482C160.337 36.6548 158.462 42.3282 154.713 46.7682C150.964 51.2082 145.537 54.2668 138.433 55.9442H138.581L165.665 98.2722C166.948 100.246 168.181 101.578 169.365 102.268C170.648 102.959 172.473 103.304 174.841 103.304H176.913ZM110.609 4.14417V55.6482H124.077C131.97 55.6482 137.792 53.5762 141.541 49.4322C145.389 45.1895 147.313 38.7268 147.313 30.0442C147.313 21.2628 145.389 14.7508 141.541 10.5082C137.693 6.2655 131.872 4.14417 124.077 4.14417H110.609Z" fill="white"/>
<path opacity="0.97" d="M23.532 60.0882V102.12L38.036 103.304V104.488H0V103.304L12.136 102.12V4.73617L0 3.55217V2.36816H37.444C48.988 2.36816 57.8187 4.83484 63.936 9.76817C70.152 14.7015 73.26 21.6575 73.26 30.6362C73.26 40.2068 70.2013 47.5082 64.084 52.5402C57.9667 57.5722 49.0867 60.0882 37.444 60.0882H23.532ZM23.532 4.14417V58.3122H37C44.992 58.3122 50.8133 56.0428 54.464 51.5042C58.1147 46.9655 59.94 39.7628 59.94 29.8962C59.94 21.7068 58.2627 15.3922 54.908 10.9522C51.652 6.4135 45.6827 4.14417 37 4.14417H23.532Z" fill="white"/>
</svg>
