<svg width="470" height="93" viewBox="0 0 470 93" fill="none" xmlns="http://www.w3.org/2000/svg">
<path opacity="0.95" d="M455.472 89.088C451.291 91.3067 446.555 92.416 441.264 92.416C437.253 92.416 433.371 91.776 429.616 90.496C425.861 89.3013 422.661 87.5947 420.016 85.376L417.328 92.416H415.664L414 61.824L415.152 61.568C416.432 67.3707 417.712 71.8933 418.992 75.136C420.357 78.3787 422.107 81.1947 424.24 83.584C428.592 88.448 434.352 90.88 441.52 90.88C447.664 90.88 452.443 89.3013 455.856 86.144C459.355 82.9013 461.104 78.5493 461.104 73.088C461.104 69.248 460.165 66.0053 458.288 63.36C456.496 60.7147 454.021 58.4533 450.864 56.576C447.707 54.6987 443.269 52.5227 437.552 50.048C432.859 48 428.933 45.9947 425.776 44.032C422.619 41.984 419.973 39.3813 417.84 36.224C415.792 32.9813 414.768 29.056 414.768 24.448C414.768 19.7547 415.877 15.5733 418.096 11.904C420.4 8.14934 423.515 5.248 427.44 3.2C431.451 1.06667 435.973 0 441.008 0C444.507 0 447.749 0.597333 450.736 1.792C453.808 2.98667 457.093 4.94933 460.592 7.68L463.664 1.536H465.328L466.608 29.44L465.328 29.824C463.963 24.1067 462.213 19.072 460.08 14.72C455.813 5.93067 449.285 1.536 440.496 1.536C435.205 1.536 430.981 3.072 427.824 6.144C424.667 9.13067 423.088 13.2267 423.088 18.432C423.088 22.1867 423.941 25.344 425.648 27.904C427.44 30.464 429.872 32.6827 432.944 34.56C436.101 36.4373 440.539 38.6987 446.256 41.344C451.376 43.648 455.472 45.824 458.544 47.872C461.701 49.92 464.219 52.48 466.096 55.552C468.059 58.5387 469.04 62.2507 469.04 66.688C469.04 71.6373 467.845 76.0747 465.456 80C463.067 83.84 459.739 86.8693 455.472 89.088Z" fill="white"/>
<path opacity="0.95" d="M396.28 89.296V90.32H377.208L342.52 44.496L335.352 52.688V88.272L346.488 89.296V90.32H315V89.296L325.496 88.272V4.048L315 3.024V2H346.488V3.024L335.352 4.048V50.384L370.168 10.192C371.533 8.57067 372.216 7.248 372.216 6.22401C372.216 5.37067 371.533 4.73067 370.168 4.304C368.888 3.87733 366.243 3.45067 362.232 3.024V2H388.344V3.024C383.395 3.87733 380.024 4.688 378.232 5.456C376.525 6.224 374.691 7.71734 372.728 9.936L349.304 36.816L386.296 85.2C387.747 86.8213 389.069 87.9307 390.264 88.528C391.544 89.04 393.379 89.296 395.768 89.296H396.28Z" fill="white"/>
<path opacity="0.95" d="M302.696 87.296V88.32H289.512C287.464 88.32 285.928 88.0213 284.904 87.424C283.88 86.8267 282.813 85.6747 281.704 83.968L262.12 52.352C260.925 50.3893 259.901 49.1947 259.048 48.768C258.28 48.256 256.872 48 254.824 48H245.352V86.272L256.488 87.296V88.32H225V87.296L235.496 86.272V2.048L225 1.024V0H257.384C267.453 0 275.133 2.048 280.424 6.144C285.715 10.1547 288.36 16 288.36 23.68C288.36 29.6533 286.739 34.56 283.496 38.4C280.253 42.24 275.56 44.8853 269.416 46.336H269.544L292.968 82.944C294.077 84.6507 295.144 85.8027 296.168 86.4C297.277 86.9973 298.856 87.296 300.904 87.296H302.696ZM245.352 1.536V46.08H257C263.827 46.08 268.861 44.288 272.104 40.704C275.432 37.0347 277.096 31.4453 277.096 23.936C277.096 16.3413 275.432 10.7093 272.104 7.04C268.776 3.37067 263.741 1.536 257 1.536H245.352Z" fill="white"/>
<path opacity="0.95" d="M172.32 0C179.744 0 186.528 2.048 192.672 6.144C198.901 10.24 203.765 15.8293 207.264 22.912C210.848 29.9093 212.64 37.6747 212.64 46.208C212.64 54.7413 210.848 62.5493 207.264 69.632C203.765 76.6293 198.901 82.176 192.672 86.272C186.528 90.368 179.744 92.416 172.32 92.416C164.896 92.416 158.069 90.368 151.84 86.272C145.696 82.176 140.832 76.6293 137.248 69.632C133.749 62.5493 132 54.7413 132 46.208C132 37.6747 133.749 29.9093 137.248 22.912C140.832 15.8293 145.696 10.24 151.84 6.144C158.069 2.048 164.896 0 172.32 0ZM144.288 46.208C144.288 60.4587 146.72 71.4667 151.584 79.232C156.448 86.912 163.36 90.752 172.32 90.752C181.28 90.752 188.192 86.912 193.056 79.232C197.92 71.4667 200.352 60.4587 200.352 46.208C200.352 31.9573 197.92 20.9493 193.056 13.184C188.192 5.41867 181.28 1.536 172.32 1.536C163.36 1.536 156.448 5.41867 151.584 13.184C146.72 20.9493 144.288 31.9573 144.288 46.208Z" fill="white"/>
<path opacity="0.95" d="M127.104 2V3.024L119.936 3.664C117.632 3.83467 116.053 4.26134 115.2 4.944C114.347 5.54134 113.621 6.82134 113.024 8.784L87.552 92.368H85.504L63.104 28.624L43.648 92.368H41.6L10.496 4.048L0 3.024V2H32V3.024L20.864 4.048L46.08 75.984H46.592L61.952 25.552L54.4 4.048L43.904 3.024V2H75.904V3.024L64.768 4.048L89.984 75.984H90.496L110.976 8.784C111.232 7.84534 111.36 7.03467 111.36 6.35201C111.36 5.41334 111.104 4.77334 110.592 4.43201C110.08 4.00534 109.099 3.74933 107.648 3.664L99.84 3.024V2H127.104Z" fill="white"/>
</svg>
